# xmcd
#
# Track frame offsets:
# 150
# 18556
# 36526
# 52823
# 67903
# 82429
# 99847
# 117887
# 133315
# 153032
# 169225
# 188167
# 204996
# 224012
#
# Disc length: 3198 seconds
#
# Revision: 0
# Processed by: cddbd v1.4PL0 Copyright (c) Steve Scherf et al.
# Submitted via: Audion 2.5.0 (http://www.panic.com/audion/)
#
DISCID=c60c7c0e
DTITLE=dsfsdf - dfdsf
DYEAR=1900
DGENRE=
TTITLE0=sdf
TTITLE1=sdf
TTITLE2=sdfs
TTITLE3=sfs
TTITLE4=fsf
TTITLE5=fsfsff
TTITLE6=sfsf
TTITLE7=sdf
TTITLE8=sdf
TTITLE9=sdf
TTITLE10=fsdf
TTITLE11=fsd
TTITLE12=sdfs
TTITLE13=df
EXTD=
EXTT0=
EXTT1=
EXTT2=
EXTT3=
EXTT4=
EXTT5=
EXTT6=
EXTT7=
EXTT8=
EXTT9=
EXTT10=
EXTT11=
EXTT12=
EXTT13=
PLAYORDER=
